<?xml version="1.0" encoding="UTF-8"?><svg id="Calque_1" xmlns="http://www.w3.org/2000/svg" viewBox="0 0 178.63 71.21"><defs><style>.cls-1{isolation:isolate;}.cls-2{fill:#58585a;stroke-width:0px;}</style></defs><g id="Connexion" class="cls-1"><g class="cls-1"><path class="cls-2" d="m34.39,32.92c-.1.2-10.64,20.05-22.79,20.05C5.07,52.97-.03,46.02-.03,37.14-.03,30.37,2.78,21.19,7.13,13.74,12,5.38,17.89.59,23.29.59s8.09,4.63,8.09,7.76c0,1.35-.19,2-.46,2.56-.23.47-.62.52-.89.43-.4-.18-.62-.62-.52-1.05.15-.55.21-1.12.19-1.68,0-3.12-2.31-5.86-4.94-5.86C16.69,2.75,4.33,21.89,4.33,38.45c0,7.1,3.35,12.87,7.46,12.87,9.23,0,18.63-14.39,21.3-18.8.07-.12.12-.2.14-.23.42-.64.81-.51.96-.43.31.18.39.62.19,1.06Z"/><path class="cls-2" d="m51.21,33.1c-.81.3-1.65.51-2.5.61-.02,0-.04.01-.06.02-.97.2-1.96.25-2.94.15-.65-.02-1.3-.11-1.93-.27-.13,1.93-1.12,4.65-2.36,6.84-2.66,4.68-5.21,5.38-6.49,5.38-2.25,0-4.93-1.12-4.93-6.43,0-7.67,5.28-14.89,9.37-14.89,1.85,0,2.83.79,3.34,1.46.85,1.13.94,2.68.64,3.71-.11.4-.27.93-.77.93-.04,0-.08,0-.12,0-.59-.08-.59-.71-.59-.91v-.03c0-1.04-.31-2.98-1.05-2.98-1.91,0-6.79,5.92-6.79,13.36,0,3.16.71,4.29,1.37,4.29,1.21,0,3.07-1.71,4.64-4.24,1.81-2.93,2.68-5.99,2.12-7.41-.5-.68-.13-1.36.41-1.44.02,0,.04,0,.06,0,.37,0,.7.2.87.53.04.07.08.14.11.21.72.33,1.48.54,2.27.61,1.79.06,3.91-.28,4.82-.68.16-.07.34-.07.5,0,.16.06.29.19.36.35.14.33,0,.71-.33.86Z"/><path class="cls-2" d="m72.67,32.32s-.07.15-.15.32c-2.77,5.83-6.69,12.78-9.64,12.78-1.89,0-3.92-1.77-3.92-6.74,0-3.85,1.41-8.12,1.47-8.31.01-.04.02-.09.02-.13-2.84,2.52-6.34,7.62-10.39,15.16-.2.37-.28.53-.33.6-.16.54-.65.87-1.3.87-.06,0-.13,0-.19,0-.79-.08-1.6-.64-1.6-1.58,0-5.69,4-19.68,5.48-21.42.5-.59,1.65-.44,2.47,0,.84.45,1.22,1.1,1.03,1.75-.03.1-.11.32-.29.81-.64,1.75-2.17,5.95-3.65,11.31,1.94-3.17,7.93-11.84,10.26-11.84,1.81,0,2.64,1.49,2.64,2.87,0,.92-.37,2.47-.85,4.44-.68,2.8-1.52,6.28-1.52,9.12,0,1.04.16,1.63.43,1.63,2.14,0,6.23-7.29,8.47-11.63.3-.57.36-.7.41-.77.28-.39.69-.44.95-.27.26.16.42.55.16,1.03Z"/><path class="cls-2" d="m93.91,32.32s-.07.15-.15.32c-2.77,5.83-6.69,12.78-9.64,12.78-1.89,0-3.92-1.77-3.92-6.74,0-3.85,1.41-8.12,1.47-8.31.01-.04.02-.09.02-.13-2.84,2.52-6.34,7.62-10.39,15.16-.2.37-.28.53-.33.6-.16.54-.65.87-1.3.87-.06,0-.13,0-.19,0-.79-.08-1.6-.64-1.6-1.58,0-5.69,4-19.68,5.48-21.42.5-.59,1.65-.44,2.47,0,.84.45,1.22,1.1,1.03,1.75-.03.1-.11.32-.29.81-.64,1.75-2.17,5.95-3.65,11.31,1.94-3.17,7.93-11.84,10.26-11.84,1.81,0,2.64,1.49,2.64,2.87,0,.92-.37,2.47-.85,4.44-.68,2.8-1.52,6.28-1.52,9.12,0,1.04.16,1.63.43,1.63,2.14,0,6.23-7.29,8.47-11.63.3-.57.36-.7.41-.77.28-.39.69-.44.95-.27.26.16.42.55.16,1.03Z"/><path class="cls-2" d="m110.87,33.06c-.07.13-8.05,13.05-14.74,13.05-3.56,0-6.57-3.69-6.57-8.06,0-2.49,1.13-5.78,2.94-8.6,1.96-3.04,4.2-4.79,6.15-4.79,2.25,0,4.09,1.67,4.09,3.72,0,1.33-.56,3.52-1.82,5.4-1.02,1.53-2.81,3.35-5.58,3.35-.57-.04-1.13-.14-1.68-.3-.26,1.14-.4,2.31-.41,3.48,0,1.93.46,4.23,2.65,4.23,4.07,0,9.77-6.26,13.75-12.12.04-.06.06-.09.08-.11.21-.33.64-.45.98-.26.27.16.42.54.17,1.02Zm-16.91,2.62s0,0,.01,0c.31.16.65.23,1,.22,1.51,0,5.66-1.7,5.66-7.16,0-1.14-.23-1.87-.6-1.87-1.38,0-4.63,3.93-6.07,8.81Z"/><path class="cls-2" d="m130.23,33.8s-.11.18-.2.32c-2.91,4.72-8.69,12.63-14.66,12.63-2.33,0-4.95-.91-6.47-4.4-1.67,2.22-3.08,4.4-3.91,6.32-.02.03-.02.06-.01.1.02.02.04.03.06.03.31.02.55.29.53.6-.03.39-.43.71-.91.71-.29,0-.57-.11-.78-.31-.28-.29-.42-.76-.41-1.39,0-2.25,1.95-5.62,4.52-9.07-.28-1.58-.41-3.18-.4-4.78,0-1.03.03-6.2.63-7.09.64-.95,2.05-.95,3.17-.53.73.28,1.48.81,1.39,1.47-.01.08-.03.2-.05.35-.13.88-.45,3.03-.62,5.51,3.27-3.74,6.5-6.92,7.75-8,.49-.42,1.24-.27,1.82.38.5.55.59,1.16.22,1.51-1.81,1.72-6.03,5.82-9.89,10.33.17,3.2,1.18,6.52,3.61,6.52,2.06,0,4.92-1.86,8.28-5.37,1.92-2.04,3.71-4.21,5.35-6.49.06-.08.1-.14.11-.15.13-.19.37-.29.6-.26.2.04.37.19.42.39.07.24,0,.49-.16.67Z"/><path class="cls-2" d="m140,32.76l-.03.08c-.96,2.13-2.04,4.2-3.26,6.19-2.27,3.64-4.28,5.49-5.99,5.49-2.37,0-3.9-2.36-3.9-6.01,0-4.95,1.89-9.72,2.49-10.33.64-.65,2.15-.35,2.85.17.52.38.68.93.41,1.41-.5.92-2.59,7.13-2.59,10.74,0,2.28.27,2.46.65,2.46.87,0,3.39-1.03,8.12-10.57.13-.26.16-.33.19-.37.17-.32.56-.45.88-.3.09.05.51.32.18,1.03Zm-9.12-6.25c-.35-.35-.54-.82-.54-1.31,0-1.03.83-1.86,1.86-1.86,1.03,0,1.86.83,1.86,1.86,0,1.03-.83,1.86-1.86,1.86-.49,0-.97-.2-1.31-.54Z"/><path class="cls-2" d="m156.8,33.1c-.81.3-1.65.51-2.5.61-.02,0-.04.01-.06.02-.97.2-1.96.25-2.94.15-.65-.02-1.3-.11-1.93-.27-.13,1.93-1.12,4.65-2.36,6.84-2.66,4.68-5.21,5.38-6.49,5.38-2.25,0-4.93-1.12-4.93-6.43,0-7.67,5.28-14.89,9.37-14.89,1.85,0,2.83.79,3.34,1.46.85,1.13.94,2.68.64,3.71-.11.4-.27.93-.77.93-.04,0-.08,0-.12,0-.59-.08-.59-.71-.59-.91v-.03c0-1.04-.31-2.98-1.05-2.98-1.91,0-6.79,5.92-6.79,13.36,0,3.16.71,4.29,1.37,4.29,1.21,0,3.07-1.71,4.64-4.24,1.81-2.93,2.68-5.99,2.12-7.41-.5-.68-.13-1.36.41-1.44.02,0,.04,0,.06,0,.37,0,.7.2.87.53.04.07.08.14.11.21.72.33,1.48.54,2.27.61,1.79.06,3.91-.28,4.82-.68.16-.07.34-.07.5,0,.16.06.29.19.36.35.14.33,0,.71-.33.86Z"/><path class="cls-2" d="m178.26,32.32s-.07.15-.15.32c-2.77,5.83-6.69,12.78-9.64,12.78-1.89,0-3.92-1.77-3.92-6.74,0-3.85,1.41-8.12,1.47-8.31.01-.04.02-.09.02-.13-2.84,2.52-6.34,7.62-10.39,15.16-.2.37-.28.53-.33.6-.16.54-.65.87-1.3.87-.06,0-.13,0-.19,0-.79-.08-1.6-.64-1.6-1.58,0-5.69,4-19.68,5.48-21.42.5-.59,1.65-.44,2.47,0,.84.45,1.22,1.1,1.03,1.75-.03.1-.11.32-.29.81-.64,1.75-2.17,5.95-3.65,11.31,1.94-3.17,7.93-11.84,10.26-11.84,1.81,0,2.64,1.49,2.64,2.87,0,.92-.37,2.47-.85,4.44-.68,2.8-1.52,6.28-1.52,9.12,0,1.04.16,1.63.43,1.63,2.14,0,6.23-7.29,8.47-11.63.3-.57.36-.7.41-.77.28-.39.69-.44.95-.27.26.16.42.55.16,1.03Z"/></g></g></svg>