<?xml version="1.0" encoding="UTF-8"?><svg id="Calque_1" xmlns="http://www.w3.org/2000/svg" viewBox="0 0 189.47 71.21"><defs><style>.cls-1{isolation:isolate;}.cls-2{fill:#58585a;stroke-width:0px;}</style></defs><g id="Inscription" class="cls-1"><g class="cls-1"><path class="cls-2" d="m12.06,33.43c-3.53,10.58-5.64,16.91-6.11,18.09.4,0,.99-.01,1.45-.02.3,0,.55-.01.65-.01.43,0,.69.47.69.91,0,.16-.04.31-.12.44-.12.18-.32.28-.53.28-.4,0-6.82.36-7.23.41-.03,0-.05,0-.08,0-.39,0-.7-.32-.76-.79-.06-.53.23-.96.69-1.02.57-.07,1.27-.11,1.89-.15.25-.02.47-.03.65-.04-.04-.1-.06-.2-.06-.31v-.03s0-.02,0-.02C3.95,42.14,14.18,12.35,17.96,3.15c-1.24.02-4.62.16-5.42.2-.02,0-.04,0-.06,0-.5,0-.92-.4-.93-.91-.06-.56.22-1.22.78-1.31.71-.12,3.49-.18,6.62-.21.08-.16.17-.32.28-.46.55-.58,1.42-.61,2.27-.07.22.14.43.31.61.51,3.61-.02,6.91,0,7.28.03.57.04.97.52.94,1.15-.03.59-.42,1-.93.98-.32-.01-2.05-.02-3.72-.04-1.27,0-2.58-.02-3.28-.03-1.59,4.25-6.41,18.71-10.32,30.44Z"/><path class="cls-2" d="m41.48,32.25s-.07.15-.15.32c-2.77,5.83-6.69,12.78-9.64,12.78-1.89,0-3.92-1.77-3.92-6.74,0-3.85,1.41-8.12,1.47-8.31.01-.04.02-.09.02-.13-2.84,2.52-6.34,7.62-10.39,15.16-.2.37-.28.53-.33.6-.16.54-.65.87-1.3.87-.06,0-.13,0-.19,0-.79-.08-1.6-.64-1.6-1.58,0-5.69,4-19.68,5.48-21.42.5-.59,1.65-.44,2.47,0,.84.45,1.22,1.1,1.03,1.75-.03.1-.11.32-.29.81-.64,1.75-2.17,5.95-3.65,11.31,1.94-3.17,7.93-11.84,10.26-11.84,1.81,0,2.64,1.49,2.64,2.87,0,.92-.37,2.47-.85,4.44-.68,2.8-1.52,6.28-1.52,9.12,0,1.04.16,1.63.43,1.63,2.14,0,6.23-7.29,8.47-11.63.3-.57.36-.7.41-.77.28-.39.69-.44.95-.27.26.16.42.55.16,1.03Z"/><path class="cls-2" d="m61.34,33.59c-.03.24-.2.43-.42.51-.02,0-.08.03-.17.07-3.92,1.51-7.95,3.38-11.3,5.41,1.37,1.21,2.39,2.56,2.39,4.11,0,3.69-4.33,7.46-8.58,7.46-1.9,0-3.94-1.08-3.94-2.69,0-3.05,3.16-6.07,7.1-8.65-.45-.29-.93-.58-1.41-.87-2.88-1.74-6.15-3.72-6.15-7,0-3.56,5.25-7.78,9.68-7.78,4.03,0,5.71,2.63,5.71,4.04,0,1.51-1.21,3.54-1.38,3.76-.26.32-.7.43-1.08.28-.36-.15-.57-.53-.51-.92.05-.31.12-.61.22-.91.19-.7.45-1.65.45-2.52,0-.35-.36-.74-.94-.74-4.77,0-8.41,4.4-8.41,6.6,0,.92,1.81,2.17,3.57,3.38.71.49,1.44.99,2.13,1.52,4.5-2.65,9.48-4.7,11.85-5.62.08-.03.14-.05.16-.06.25-.12.55-.09.78.07.18.12.28.34.25.55Zm-12.31,9.08c0-.68-.54-1.33-1.34-1.97-3.66,2.47-6.15,5.12-6.15,7.62v.08c0,.13,0,.25.02.38.08.02.15.03.23.03,2.46,0,7.24-3.31,7.24-6.14Z"/><path class="cls-2" d="m79.21,33c-.07.15-8.46,15.23-15.73,15.23-4.59,0-6.65-5.34-6.65-9.13,0-3,1.17-6.57,3.13-9.55,2.04-3.11,4.46-4.89,6.63-4.89,2.86,0,3.93,2.07,3.93,3.38,0,.59-.06,1.18-.17,1.76-.08.4-.45.68-.86.64-.3-.04-.65-.3-.63-.9.06-1.27-.61-2.25-.85-2.35-1.55.05-7.81,5.68-7.81,14.13,0,3.02,1.36,5.47,3.04,5.47,6.1,0,14.2-13.12,14.77-14.33.09-.26.32-.45.59-.51.22-.04.45.04.58.22.09.12.22.39.02.83Z"/><path class="cls-2" d="m92.6,29.62c0,.18-.04.35-.13.5-.11.17-.29.27-.49.27-.35-.01-.63-.31-.62-.66,0-.21-.04-.39-.51-.39-1.01,0-3.44,1.1-8.45,8.49-3.01,4.44-5.5,9.02-5.74,9.51,0,.02-.02.03-.03.04,0,.03-.01.06-.02.09-.12.6-.64.97-1.33.97-.06,0-.13,0-.19-.01-.79-.08-1.59-.64-1.59-1.58,0-5.69,4-19.68,5.48-21.42.5-.59,1.65-.44,2.47,0,.83.45,1.22,1.1,1.03,1.75-.03.1-.11.32-.29.81-.65,1.78-2.21,6.06-3.7,11.52,0,0,.01-.02.02-.03,7.02-10.58,10.05-11.8,11.71-11.8s2.38,1.36,2.38,1.91Z"/><path class="cls-2" d="m105.59,32.7l-.03.08c-.96,2.13-2.04,4.2-3.26,6.19-2.27,3.64-4.28,5.49-5.99,5.49-2.37,0-3.9-2.36-3.9-6.01,0-4.95,1.89-9.72,2.49-10.33.64-.65,2.15-.35,2.85.17.52.38.68.93.41,1.41-.5.92-2.59,7.13-2.59,10.74,0,2.28.27,2.46.65,2.46.87,0,3.39-1.03,8.12-10.57.13-.26.16-.33.19-.37.17-.32.56-.45.88-.3.09.05.51.32.18,1.03Zm-9.12-6.25c-.35-.35-.54-.82-.54-1.31,0-1.03.83-1.86,1.86-1.86,1.03,0,1.86.83,1.86,1.86,0,1.03-.83,1.86-1.86,1.86-.49,0-.97-.2-1.31-.54Z"/><path class="cls-2" d="m128.95,31.84c-.02.28-.26.6-.88.6-2.92,0-5.82.45-8.6,1.34-.79,2.47-2.32,5.14-4.44,7.68-2.95,3.54-6.23,5.83-8.37,5.83-1.48,0-2.62-1.39-2.62-2.59,0-2.38,2.77-5.75,7.06-8.59,1.44-.96,2.97-1.79,4.55-2.5.75-1.94,1.21-3.9,1.21-5.69,0-.76-.05-1.24-.32-1.24-1.96,0-5.98,5.42-7.62,7.75-2.82,4.02-5.2,8.12-5.34,8.51,0,.02-.02.04-.03.06-1.19,4.4-2.08,8.26-2.66,10.96-1.86,8.63-2.5,14.15-2.37,15.18.27.18.42.49.4.81,0,.28-.08.56-.24.79-.2.29-.53.46-.88.46-1.61,0-1.8-2.91-1.8-5.1,0-13.8,8.38-39.2,9.81-41.48.51-.82,1.56-.85,2.34-.45.83.42,1.2,1.17.92,1.89-.87,2.21-1.68,4.47-2.43,6.7,1-1.41,2.09-2.77,3.26-4.05,2.49-2.7,4.57-4.07,6.18-4.07,2.77,0,4.02,3.21,4.02,5.48,0,.65-.07,1.3-.19,1.95,2.14-.61,4.35-.93,6.57-.95.6,0,1.21.02,1.81.07.49.06.69.37.67.64Zm-22.99,13.4c2.21,0,6.27-4.41,8.76-9.49-.96.5-1.76.98-2.4,1.4-3.81,2.49-6.37,5.59-6.37,7.71,0,.12,0,.23-.02.32,0,.02,0,.04,0,.05h.03Z"/><path class="cls-2" d="m154.47,14.29c-.04.34-.34.72-1.05.7-1.6-.05-9.25.11-16.91.3-.8,1.88-1.63,3.92-2.47,6.05-3.38,8.59-7.41,20.37-7.41,27.7,0,2.44.63,3.54,1.08,3.54,3.49,0,9.66-12.95,12.15-18.52.27-.6.31-.7.35-.76.33-.54.71-.4.81-.35.23.12.4.43.19.95l-.02.04c-.53,1.29-2.43,5.85-4.83,10.34-3.5,6.55-6.3,9.74-8.54,9.74-2.72,0-4.41-2.83-4.41-7.39,0-8.62,4.42-21.46,8.51-31.21-6.68.18-12.38.37-12.73.42-.06,0-.12.01-.17.01-.47,0-.89-.31-1.02-.76-.17-.45.02-.96.44-1.19,1.01-.5,7.89-.7,14.47-.77,2.68-6.15,5.04-10.67,5.67-11.38.64-.72,1.79-.51,2.59.07.71.52.97,1.2.66,1.75-.12.2-1.97,3.99-4.37,9.53.92,0,1.8,0,2.62,0,4.57,0,12.42.04,13.69.31.43.08.73.46.7.9Z"/><path class="cls-2" d="m151.08,32.7l-.03.08c-.96,2.13-2.04,4.2-3.26,6.19-2.27,3.64-4.28,5.49-5.99,5.49-2.37,0-3.9-2.36-3.9-6.01,0-4.95,1.89-9.72,2.49-10.33.64-.65,2.15-.35,2.85.17.52.38.68.93.41,1.41-.5.92-2.59,7.13-2.59,10.74,0,2.28.27,2.46.65,2.46.87,0,3.39-1.03,8.12-10.57.13-.26.16-.33.19-.37.17-.32.56-.45.88-.3.09.05.51.32.18,1.03Zm-9.12-6.25c-.35-.35-.54-.82-.54-1.31,0-1.03.83-1.86,1.86-1.86,1.03,0,1.86.83,1.86,1.86,0,1.03-.83,1.86-1.86,1.86-.49,0-.97-.2-1.31-.54Z"/><path class="cls-2" d="m167.88,33.04c-.81.3-1.65.51-2.5.61-.02,0-.04.01-.06.02-.97.2-1.96.25-2.94.15-.65-.02-1.3-.11-1.93-.27-.13,1.93-1.12,4.65-2.36,6.84-2.66,4.68-5.21,5.38-6.49,5.38-2.25,0-4.93-1.12-4.93-6.43,0-7.67,5.28-14.89,9.37-14.89,1.85,0,2.83.79,3.34,1.46.85,1.13.94,2.68.64,3.71-.11.4-.27.93-.77.93-.04,0-.08,0-.12,0-.59-.08-.59-.71-.59-.91v-.03c0-1.04-.31-2.98-1.05-2.98-1.91,0-6.79,5.92-6.79,13.36,0,3.16.71,4.29,1.37,4.29,1.21,0,3.07-1.71,4.64-4.24,1.81-2.93,2.68-5.99,2.12-7.41-.5-.68-.13-1.36.41-1.44.02,0,.04,0,.06,0,.37,0,.7.2.87.53.04.07.08.14.11.21.72.33,1.48.54,2.27.61,1.79.06,3.91-.28,4.82-.68.16-.07.34-.07.5,0,.16.06.29.19.36.35.14.33,0,.71-.33.86Z"/><path class="cls-2" d="m189.34,32.25s-.07.15-.15.32c-2.77,5.83-6.69,12.78-9.64,12.78-1.89,0-3.92-1.77-3.92-6.74,0-3.85,1.41-8.12,1.47-8.31.01-.04.02-.09.02-.13-2.84,2.52-6.34,7.62-10.39,15.16-.2.37-.28.53-.33.6-.16.54-.65.87-1.3.87-.06,0-.13,0-.19,0-.79-.08-1.6-.64-1.6-1.58,0-5.69,4-19.68,5.48-21.42.5-.59,1.65-.44,2.47,0,.84.45,1.22,1.1,1.03,1.75-.03.1-.11.32-.29.81-.64,1.75-2.17,5.95-3.65,11.31,1.94-3.17,7.93-11.84,10.26-11.84,1.81,0,2.64,1.49,2.64,2.87,0,.92-.37,2.47-.85,4.44-.68,2.8-1.52,6.28-1.52,9.12,0,1.04.16,1.63.43,1.63,2.14,0,6.23-7.29,8.47-11.63.3-.57.36-.7.41-.77.28-.39.69-.44.95-.27.26.16.42.55.16,1.03Z"/></g></g></svg>